<?xml version="1.0" standalone="no"?>
<!DOCTYPE svg PUBLIC "-//W3C//DTD SVG 20010904//EN"
 "http://www.w3.org/TR/2001/REC-SVG-20010904/DTD/svg10.dtd">
<svg version="1.0" xmlns="http://www.w3.org/2000/svg"
 width="700.000000pt" height="700.000000pt" viewBox="0 0 700.000000 700.000000"
 preserveAspectRatio="xMidYMid meet">
<metadata>
Created by potrace 1.14, written by Peter Selinger 2001-2017
</metadata>
<g transform="translate(0.000000,700.000000) scale(0.100000,-0.100000)"
fill="#000000" stroke="none">
<path d="M3394 6110 c-61 -17 -132 -50 -155 -72 -8 -7 -45 -38 -84 -69 -82
-66 -263 -248 -332 -334 -26 -33 -54 -66 -61 -74 -26 -27 -180 -267 -222 -346
-24 -44 -44 -81 -45 -83 -2 -2 -28 13 -58 32 -243 155 -614 294 -806 301 -157
6 -296 -68 -383 -204 -47 -74 -111 -306 -133 -481 -21 -170 -27 -451 -11 -570
3 -25 9 -67 12 -94 3 -27 8 -58 10 -70 2 -12 7 -41 10 -66 l6 -45 -118 1 c-65
0 -143 -3 -174 -7 -30 -4 -75 -10 -100 -13 -106 -13 -225 -42 -287 -71 -106
-48 -196 -159 -228 -281 -26 -97 -18 -175 32 -326 80 -243 232 -518 407 -735
61 -75 245 -266 312 -323 111 -95 152 -127 254 -200 316 -226 742 -432 1087
-526 138 -37 330 -81 396 -89 16 -2 40 -6 55 -9 15 -3 54 -8 87 -11 33 -4 76
-9 95 -11 229 -25 971 -24 1095 1 11 2 45 7 75 10 130 13 270 40 434 82 55 13
107 26 115 28 37 7 244 80 342 120 435 178 817 425 1116 724 66 66 181 193
221 246 184 243 306 472 388 730 24 76 29 106 28 190 0 94 -3 105 -37 175 -65
135 -168 211 -337 248 -147 33 -249 44 -401 46 l-140 1 5 40 c4 22 9 58 11 80
3 22 7 47 10 55 10 38 19 201 18 360 0 210 -5 255 -49 495 -12 65 -58 213 -81
261 -39 81 -170 204 -217 204 -8 0 -17 4 -20 9 -7 11 -47 20 -126 27 -164 15
-587 -136 -849 -303 -29 -19 -54 -33 -55 -31 -2 2 -24 44 -51 93 -47 88 -179
293 -213 331 -9 11 -33 40 -52 64 -117 152 -365 386 -473 448 -91 52 -224 70
-323 42z m196 -495 c235 -205 443 -490 569 -782 34 -77 106 -278 116 -323 2
-8 13 -53 24 -100 11 -47 23 -103 26 -125 4 -22 8 -47 10 -55 4 -13 9 -54 31
-237 13 -110 6 -496 -11 -605 -2 -13 -6 -44 -9 -69 -8 -53 -14 -94 -21 -129
-3 -14 -8 -38 -11 -55 -13 -78 -79 -297 -120 -403 -46 -115 -130 -292 -143
-302 -4 -3 -10 -13 -14 -22 -11 -29 -127 -199 -187 -273 -73 -89 -198 -217
-275 -281 -33 -27 -62 -52 -65 -56 -9 -12 -126 87 -229 191 -212 218 -382 489
-496 796 -41 110 -109 369 -119 454 -4 29 -8 56 -10 60 -2 3 -7 40 -11 81 -3
41 -8 93 -11 115 -8 64 -7 434 1 500 4 33 8 74 10 91 3 30 17 133 20 144 1 3
5 28 9 55 5 28 19 95 33 150 118 478 365 887 723 1197 l65 56 30 -21 c16 -12
46 -35 65 -52z m-2322 -2129 c7 -4 12 -12 12 -18 0 -5 6 -24 14 -41 7 -18 30
-72 52 -122 207 -487 586 -992 1022 -1363 40 -34 69 -62 64 -62 -4 0 -53 15
-108 34 -377 127 -746 334 -1027 576 -159 137 -352 362 -451 527 -81 136 -196
409 -181 432 6 11 70 24 175 37 25 3 47 8 49 10 7 7 367 -2 379 -10z m4912 0
c19 -3 46 -8 60 -11 14 -3 40 -8 58 -11 18 -3 35 -10 38 -15 9 -15 -37 -144
-99 -279 -28 -61 -131 -233 -180 -300 -83 -113 -233 -275 -349 -377 -104 -92
-326 -249 -428 -304 -25 -13 -47 -27 -50 -30 -8 -11 -309 -155 -385 -184 -116
-46 -268 -96 -273 -90 -3 2 8 15 24 27 81 64 245 219 354 334 298 316 561 716
720 1094 17 41 35 84 40 95 4 11 11 28 14 37 3 11 19 18 48 21 58 5 364 0 408
-7z"/>
</g>
</svg>
